<?xml version="1.0" encoding="UTF-8" standalone="no"?>
<!-- Created with Inkscape (http://www.inkscape.org/) -->

<svg
   xmlns:dc="http://purl.org/dc/elements/1.1/"
   xmlns:cc="http://creativecommons.org/ns#"
   xmlns:rdf="http://www.w3.org/1999/02/22-rdf-syntax-ns#"
   xmlns:svg="http://www.w3.org/2000/svg"
   xmlns="http://www.w3.org/2000/svg"
   xmlns:sodipodi="http://sodipodi.sourceforge.net/DTD/sodipodi-0.dtd"
   xmlns:inkscape="http://www.inkscape.org/namespaces/inkscape"
   width="220"
   height="140"
   viewBox="0 0 58.208332 37.041668"
   version="1.1"
   id="svg8"
   inkscape:version="0.92.5 (2060ec1f9f, 2020-04-08)"
   sodipodi:docname="CardBanner.svg"
   inkscape:export-filename="/home/brendena/Documents/personalStuff/MathEquations-ExtensionV2/MathEquations-component/images/CardBanner.png"
   inkscape:export-xdpi="96"
   inkscape:export-ydpi="96">
  <defs
     id="defs2" />
  <sodipodi:namedview
     id="base"
     pagecolor="#ffffff"
     bordercolor="#666666"
     borderopacity="1.0"
     inkscape:pageopacity="0.0"
     inkscape:pageshadow="2"
     inkscape:zoom="2.8"
     inkscape:cx="-45.67155"
     inkscape:cy="198.64777"
     inkscape:document-units="mm"
     inkscape:current-layer="g1405"
     showgrid="false"
     units="px"
     inkscape:window-width="2495"
     inkscape:window-height="1416"
     inkscape:window-x="2625"
     inkscape:window-y="24"
     inkscape:window-maximized="1" />
  <metadata
     id="metadata5">
    <rdf:RDF>
      <cc:Work
         rdf:about="">
        <dc:format>image/svg+xml</dc:format>
        <dc:type
           rdf:resource="http://purl.org/dc/dcmitype/StillImage" />
        <dc:title></dc:title>
      </cc:Work>
    </rdf:RDF>
  </metadata>
  <g
     inkscape:groupmode="layer"
     id="layer5"
     inkscape:label="background"
     style="display:inline"
     transform="translate(0,-111.125)">
    <rect
       style="fill:#ffdc78;fill-opacity:1;stroke:#000000;stroke-width:0.44139978;stroke-linejoin:round;stroke-miterlimit:4;stroke-dasharray:none;stroke-opacity:1"
       id="rect1408"
       width="57.760159"
       height="36.539524"
       x="0.22916543"
       y="111.40976"
       ry="9.4435081"
       rx="0" />
  </g>
  <g
     inkscape:label="Layer 1"
     inkscape:groupmode="layer"
     id="layer1"
     transform="translate(0,-259.95832)"
     style="display:inline">
    <g
       id="g1405"
       transform="matrix(1.1514734,0,0,1.8729372,168.73911,193.54502)">
      <g
         id="layer4"
         transform="matrix(0.63347379,0,0,0.63119118,-116.02576,-132.03398)">
        <rect
           style="fill:#8064d6;fill-opacity:1;stroke:#000000;stroke-width:0.96674454;stroke-linejoin:round;stroke-miterlimit:4;stroke-dasharray:none;stroke-opacity:1"
           id="rect850"
           width="30.855316"
           height="30.386305"
           x="0.47444203"
           y="265.84399"
           ry="9.8887291" />
      </g>
      <g
         id="layer1-5"
         transform="matrix(0.57240385,0,0,0.45377151,-114.99258,-82.171981)">
        <g
           id="g845"
           transform="matrix(0.24791144,0,0,0.2448596,0.07404439,264.86199)">
          <g
             style="display:inline"
             id="layer2" />
          <g
             style="display:inline"
             transform="matrix(0.96754606,0,0,0.96754606,1.7056659,-890.73656)"
             id="layer1-6">
            <g
               id="text4136"
               style="font-style:normal;font-weight:normal;font-size:85.47711945px;line-height:125%;font-family:sans-serif;letter-spacing:0px;word-spacing:0px;fill:#33e5e3;fill-opacity:1;stroke:none;stroke-width:1px;stroke-linecap:butt;stroke-linejoin:miter;stroke-opacity:1"
               transform="matrix(0.82922384,0,0,1.205947,-0.50507627,0)">
              <path
                 style="fill:#33e5e3;fill-opacity:1"
                 id="path4215"
                 d="m 40.120342,853.15077 v 6.01011 h -2.587686 q -10.392482,0 -13.940116,-3.08853 -3.505898,-3.08853 -3.505898,-12.31238 v -9.97511 q 0,-6.30227 -2.253791,-8.72301 -2.253791,-2.42074 -8.1804272,-2.42074 H 7.1064744 v -5.96837 h 2.5459494 q 5.9683732,0 8.1804272,-2.379 2.253791,-2.42074 2.253791,-8.63953 v -10.01685 q 0,-9.22385 3.505898,-12.27064 3.547634,-3.08853 13.940116,-3.08853 h 2.587686 v 5.96837 h -2.838107 q -5.8849,0 -7.679585,1.83642 -1.794686,1.83643 -1.794686,7.72132 v 10.35075 q 0,6.55269 -1.919896,9.51601 -1.878159,2.96331 -6.469216,4.00674 4.632794,1.12689 6.510953,4.09021 1.878159,2.96332 1.878159,9.47427 v 10.35075 q 0,5.8849 1.794686,7.72132 1.794685,1.83642 7.679585,1.83642 z"
                 inkscape:connector-curvature="0" />
              <path
                 style="fill:#33e5e3;fill-opacity:1"
                 id="path4217"
                 d="m 115.95624,853.15077 h 2.92159 q 5.84316,0 7.59611,-1.79469 1.79468,-1.79468 1.79468,-7.76305 v -10.35075 q 0,-6.51095 1.87816,-9.47427 1.87816,-2.96332 6.51095,-4.09021 -4.63279,-1.04343 -6.51095,-4.00674 -1.87816,-2.96332 -1.87816,-9.51601 V 795.8043 q 0,-5.92663 -1.79468,-7.72132 -1.75295,-1.83642 -7.59611,-1.83642 h -2.92159 v -5.96837 h 2.62943 q 10.39248,0 13.85664,3.08853 3.5059,3.04679 3.5059,12.27064 v 10.01685 q 0,6.21879 2.25379,8.63953 2.25379,2.379 8.18043,2.379 h 2.58768 v 5.96837 h -2.58768 q -5.92664,0 -8.18043,2.42074 -2.25379,2.42074 -2.25379,8.72301 v 9.97511 q 0,9.22385 -3.5059,12.31238 -3.46416,3.08853 -13.85664,3.08853 h -2.62943 z"
                 inkscape:connector-curvature="0" />
            </g>
          </g>
          <g
             id="g4208"
             transform="translate(0,-924.36216)"
             style="display:none">
            <text
               xml:space="preserve"
               style="font-style:normal;font-weight:normal;line-height:0%;font-family:sans-serif;letter-spacing:0px;word-spacing:0px;fill:#ffffff;fill-opacity:1;stroke:none;stroke-width:1px;stroke-linecap:butt;stroke-linejoin:miter;stroke-opacity:1"
               x="-3.5781655"
               y="845.22076"
               id="text4210"
               transform="scale(0.82922384,1.205947)"><tspan
                 style="font-size:85.47711945px;line-height:1.25"
                 id="tspan4212"
                 x="-3.5781655"
                 y="845.22076">{  }</tspan></text>
          </g>
          <g
             style="display:inline"
             id="layer3"
             transform="matrix(0.96754606,0,0,0.96754606,1.7056659,3.6264133)">
            <path
               d="m 28.96527,36.008686 c 0.310477,-0.451718 0.687164,-0.859273 1.064079,-1.261002 0.255894,-0.326201 0.610398,-0.551074 0.91818,-0.825039 0.78988,-0.703094 -0.420108,0.315763 0.480664,-0.433287 0.586902,-0.47837 1.183834,-0.949804 1.819971,-1.368086 0.660442,-0.472057 1.402799,-0.794465 2.132667,-1.149499 0.721089,-0.317966 1.488522,-0.511735 2.249284,-0.719241 0.743535,-0.188513 1.492871,-0.342603 2.252548,-0.456696 0.627559,-0.08214 1.259633,-0.103056 1.891802,-0.121423 0.564051,-0.01178 1.123245,-0.01146 1.683298,0.05752 0.65874,0.06846 1.312833,0.170539 1.964664,0.284247 0.779607,0.120434 1.554783,0.261138 2.328391,0.41255 0.881777,0.137271 1.751654,0.320509 2.620796,0.515378 0.927083,0.209045 1.84743,0.442249 2.76873,0.673086 0.912258,0.212404 1.821535,0.440228 2.721852,0.695302 0.854797,0.278231 1.720404,0.524491 2.578661,0.792357 0.796641,0.281276 1.586291,0.579451 2.394455,0.830076 0.817261,0.261281 1.640407,0.503127 2.467718,0.733463 0.785287,0.208033 1.576304,0.39483 2.366085,0.586377 0.729121,0.197083 1.465029,0.364549 2.20615,0.51487 0.717258,0.129884 1.429932,0.266534 2.15688,0.337145 0.870846,0.07867 1.739512,0.169661 2.612408,0.226093 1.104679,0.08905 2.21057,0.04178 3.316245,0.0092 1.421511,-0.03258 2.841252,-0.07863 4.260968,-0.15613 1.375625,-0.08545 2.746016,-0.238757 4.101569,-0.477789 1.155875,-0.259066 2.296156,-0.586178 3.407685,-0.984411 1.085467,-0.41796 2.144093,-0.893652 3.198387,-1.377936 0.891768,-0.422603 1.753329,-0.905491 2.609188,-1.39116 1.708521,-0.95833 0.954724,-0.849088 2.16968,-1.341873 0.107269,0.950156 1.890042,6.410386 -0.403597,8.327635 -0.421924,0.301693 -0.894311,0.530518 -1.357364,0.767868 -0.889629,0.43152 -1.752183,0.91332 -2.663559,1.303009 -1.078233,0.477782 -2.150452,0.96883 -3.268036,1.359696 -1.157067,0.406354 -2.339492,0.761027 -3.554396,0.971468 -1.38966,0.218476 -2.792076,0.336625 -4.196719,0.428186 -1.421573,0.06904 -2.841693,0.160132 -4.264255,0.211333 -1.132557,0.07361 -2.264755,0.141151 -3.40043,0.0799 -0.883819,-0.03645 -1.762078,-0.128829 -2.644708,-0.176331 -0.757566,-0.06392 -1.503606,-0.182293 -2.244973,-0.344723 -0.760761,-0.144817 -1.5182,-0.302047 -2.262011,-0.514053 -0.784518,-0.228245 -1.589907,-0.38675 -2.37797,-0.604228 -0.831942,-0.236988 -1.662892,-0.475195 -2.483523,-0.7465 -0.815955,-0.240941 -1.624871,-0.502719 -2.414146,-0.815125 -0.844981,-0.290173 -1.700367,-0.546584 -2.552332,-0.815295 -0.885623,-0.270759 -1.78925,-0.484339 -2.689293,-0.706365 -0.911558,-0.233003 -1.826095,-0.452013 -2.743608,-0.661774 -0.860824,-0.187892 -1.721662,-0.378441 -2.598968,-0.484131 -0.766599,-0.146584 -1.532879,-0.291551 -2.30832,-0.390178 -0.635889,-0.103067 -1.277083,-0.183541 -1.919245,-0.240614 -0.524261,-0.05401 -1.047885,-0.06553 -1.575599,-0.05063 -0.595191,-0.0027 -1.192529,0.0073 -1.783916,0.07667 -0.723597,0.09322 -1.434396,0.259899 -2.141619,0.430274 -0.71615,0.201471 -1.432745,0.408174 -2.10572,0.722479 -0.700393,0.319859 -1.373827,0.682869 -1.995241,1.130653 -0.59633,0.438118 -1.173415,0.900756 -1.721712,1.393086 -0.443225,0.416893 -0.917018,0.804581 -1.304087,1.273192 -0.369463,0.42876 -0.699941,0.88197 -1.027473,1.340099 l -0.74018,-7.869618 z"
               id="path4234"
               style="color:#000000;clip-rule:nonzero;display:inline;overflow:visible;visibility:visible;opacity:1;isolation:auto;mix-blend-mode:normal;color-interpolation:sRGB;color-interpolation-filters:linearRGB;solid-color:#000000;solid-opacity:1;fill:#ffffd3;fill-opacity:1;fill-rule:nonzero;stroke:#303c42;stroke-width:0;stroke-linecap:round;stroke-linejoin:round;stroke-miterlimit:4;stroke-dasharray:none;stroke-dashoffset:0;stroke-opacity:1;color-rendering:auto;image-rendering:auto;shape-rendering:auto;text-rendering:auto;enable-background:accumulate"
               inkscape:connector-curvature="0" />
            <path
               d="m 29.710936,69.975121 c 0.310477,-0.451718 0.687164,-0.859274 1.064079,-1.261002 0.255894,-0.326201 0.610399,-0.551074 0.91818,-0.825039 0.789881,-0.703094 -0.420108,0.315763 0.480664,-0.433287 0.586902,-0.47837 1.183834,-0.949804 1.819972,-1.368086 0.660441,-0.472057 1.402798,-0.794465 2.132666,-1.149499 0.721089,-0.317966 1.488522,-0.511735 2.249284,-0.719241 0.743535,-0.188514 1.492871,-0.342604 2.252548,-0.456696 0.627559,-0.08214 1.259633,-0.103056 1.891802,-0.121423 0.564052,-0.01178 1.123245,-0.01146 1.683298,0.05752 0.658741,0.06846 1.312833,0.170539 1.964664,0.284247 0.779607,0.120434 1.554783,0.261138 2.328391,0.41255 0.881777,0.137271 1.751654,0.320508 2.620796,0.515378 0.927083,0.209045 1.84743,0.442249 2.76873,0.673086 0.912258,0.212404 1.821536,0.440228 2.721852,0.695302 0.854797,0.27823 1.720404,0.52449 2.578661,0.792357 0.796641,0.281275 1.586291,0.579451 2.394455,0.830076 0.817261,0.261281 1.640407,0.503127 2.467718,0.733463 0.785287,0.208033 1.576304,0.39483 2.366086,0.586376 0.72912,0.197084 1.465028,0.36455 2.206149,0.514871 0.717259,0.129884 1.429932,0.266533 2.15688,0.337145 0.870846,0.07867 1.739512,0.169661 2.612408,0.226093 1.10468,0.08905 2.210571,0.04178 3.316245,0.0092 1.421511,-0.03258 2.841252,-0.07863 4.260968,-0.156131 1.375625,-0.08545 2.746016,-0.238757 4.101569,-0.477788 1.155875,-0.259066 2.296156,-0.586178 3.407685,-0.984411 1.085467,-0.417961 2.144093,-0.893652 3.198387,-1.377936 0.891768,-0.422603 1.753329,-0.905491 2.609188,-1.39116 1.489761,-0.933075 1.933384,-1.504162 2.104206,-1.408201 0.02384,2.355113 1.955552,6.476714 -0.338082,8.393963 -0.421921,0.301693 -0.894317,0.530518 -1.357365,0.767868 -0.88963,0.43152 -1.752183,0.91332 -2.66356,1.303009 -1.078232,0.477782 -2.150451,0.96883 -3.268035,1.359696 -1.157067,0.406354 -2.339492,0.761027 -3.554396,0.971468 -1.38966,0.218476 -2.792077,0.336625 -4.196719,0.428186 -1.421573,0.06904 -2.841693,0.160131 -4.264255,0.211333 -1.132557,0.07361 -2.264755,0.14115 -3.40043,0.0799 -0.88382,-0.03645 -1.762078,-0.128829 -2.644708,-0.176331 -0.757567,-0.06392 -1.503606,-0.182294 -2.244973,-0.344723 -0.760761,-0.144817 -1.518201,-0.302048 -2.262011,-0.514053 -0.784518,-0.228245 -1.589907,-0.38675 -2.37797,-0.604228 -0.831942,-0.236988 -1.662892,-0.475195 -2.483523,-0.7465 -0.815955,-0.240942 -1.624872,-0.50272 -2.414146,-0.815125 -0.844979,-0.290214 -1.700366,-0.546625 -2.55233,-0.815336 C 55.48034,73.741253 54.576714,73.527673 53.676671,73.305647 52.765112,73.072644 51.850576,72.853634 50.933063,72.643873 50.072239,72.455981 49.2114,72.265432 48.334095,72.159742 47.567496,72.013158 46.801216,71.86819 46.025774,71.769564 45.389886,71.666497 44.748692,71.586023 44.10653,71.52895 c -0.524261,-0.05401 -1.047886,-0.06554 -1.575599,-0.05063 -0.595191,-0.0027 -1.19253,0.0073 -1.783917,0.07667 -0.723596,0.09322 -1.434395,0.259899 -2.141618,0.430274 -0.71615,0.201471 -1.432746,0.408173 -2.105721,0.722479 -0.700393,0.319859 -1.373826,0.682869 -1.99524,1.130653 -0.59633,0.438118 -1.173415,0.900756 -1.721712,1.393086 -0.443225,0.416893 -0.917018,0.804581 -1.304087,1.273192 -0.369463,0.42876 -0.699942,0.88197 -1.027473,1.340099 l -0.74018,-7.869618 z"
               id="path4234-3"
               style="color:#000000;clip-rule:nonzero;display:inline;overflow:visible;visibility:visible;opacity:1;isolation:auto;mix-blend-mode:normal;color-interpolation:sRGB;color-interpolation-filters:linearRGB;solid-color:#000000;solid-opacity:1;fill:#ffffd3;fill-opacity:1;fill-rule:nonzero;stroke:#303c42;stroke-width:0;stroke-linecap:round;stroke-linejoin:round;stroke-miterlimit:4;stroke-dasharray:none;stroke-dashoffset:0;stroke-opacity:1;color-rendering:auto;image-rendering:auto;shape-rendering:auto;text-rendering:auto;enable-background:accumulate"
               inkscape:connector-curvature="0" />
            <path
               d="m 36.300214,86.516786 c 0.310477,-0.451718 0.687165,-0.859274 1.064079,-1.261002 0.255895,-0.326201 0.610399,-0.551074 0.918181,-0.82504 0.78988,-0.703093 -0.420109,0.315764 0.480663,-0.433286 0.586902,-0.47837 1.183835,-0.949804 1.819972,-1.368086 0.660442,-0.472057 1.402798,-0.794466 2.132666,-1.149499 0.72109,-0.317966 1.488522,-0.511735 2.249284,-0.719241 0.743536,-0.188514 1.492871,-0.342604 2.252548,-0.456696 0.62756,-0.08214 1.259633,-0.103056 1.891803,-0.121424 0.564051,-0.01178 1.123244,-0.01146 1.683298,0.05752 0.65874,0.06846 1.312833,0.170539 1.964663,0.284246 0.779607,0.120435 1.554784,0.261139 2.328391,0.412551 0.881777,0.137271 1.751655,0.320508 2.620797,0.515378 0.927082,0.209045 1.84743,0.442249 2.76873,0.673086 0.912258,0.212404 1.821535,0.440227 2.721851,0.695302 0.854797,0.27823 1.720405,0.52449 2.578662,0.792357 0.79664,0.281275 1.58629,0.579451 2.394455,0.830076 0.81726,0.261281 1.640406,0.503127 2.467717,0.733463 0.785288,0.208033 1.576305,0.39483 2.366086,0.586376 0.72912,0.197084 1.465029,0.36455 2.206149,0.514871 0.717259,0.129884 1.429933,0.266533 2.156881,0.337145 0.870846,0.07867 1.739511,0.169661 2.612407,0.226093 1.10468,0.08905 2.210571,0.04178 3.316246,0.0092 1.42151,-0.03258 2.841251,-0.07863 4.260968,-0.156131 1.375624,-0.08545 2.746015,-0.238757 4.101568,-0.477788 1.155876,-0.259066 2.296157,-0.586179 3.407686,-0.984411 1.085466,-0.417961 2.144091,-0.893652 3.198384,-1.377936 0.891765,-0.422603 1.753331,-0.905492 2.609191,-1.39116 1.02236,-0.544367 0.54728,-0.417992 2.10417,-1.408201 0.0238,2.355113 1.95556,6.476714 -0.33808,8.393963 -0.42192,0.301693 -0.89432,0.530518 -1.35737,0.767868 -0.88962,0.43152 -1.752171,0.91332 -2.663548,1.303009 -1.078239,0.477782 -2.150454,0.96883 -3.268039,1.359696 -1.157067,0.406354 -2.339492,0.761027 -3.554396,0.971468 -1.38966,0.218475 -2.792076,0.336625 -4.196719,0.428186 -1.421573,0.06904 -2.841692,0.160131 -4.264255,0.211332 -1.132556,0.07362 -2.264754,0.141151 -3.40043,0.0799 -0.883819,-0.03645 -1.762077,-0.128828 -2.644708,-0.17633 -0.757566,-0.06392 -1.503606,-0.182294 -2.244973,-0.344723 -0.760761,-0.144817 -1.5182,-0.302048 -2.262011,-0.514053 -0.784517,-0.228245 -1.589906,-0.38675 -2.377969,-0.604228 -0.831942,-0.236988 -1.662893,-0.475195 -2.483524,-0.746501 -0.815954,-0.240941 -1.624871,-0.502719 -2.414145,-0.815124 -0.844982,-0.290173 -1.700368,-0.546584 -2.552333,-0.815295 -0.885623,-0.270759 -1.78925,-0.484339 -2.689293,-0.706365 -0.911558,-0.233003 -1.826095,-0.452013 -2.743608,-0.661774 -0.860824,-0.187892 -1.721662,-0.378441 -2.598968,-0.484131 -0.766598,-0.146584 -1.532878,-0.291552 -2.30832,-0.390179 -0.635889,-0.103066 -1.277083,-0.183541 -1.919245,-0.240613 -0.524261,-0.05401 -1.047885,-0.06554 -1.575599,-0.05063 -0.595191,-0.0027 -1.192529,0.0073 -1.783916,0.07667 -0.723597,0.09322 -1.434396,0.2599 -2.141618,0.430275 -0.71615,0.201471 -1.432746,0.408173 -2.105721,0.722479 -0.700393,0.319859 -1.373826,0.682868 -1.995241,1.130652 -0.59633,0.438119 -1.173415,0.900756 -1.721711,1.393087 -0.443226,0.416893 -0.917019,0.80458 -1.304088,1.273192 -0.369463,0.42876 -0.699941,0.88197 -1.027472,1.340099 l -0.740181,-7.869618 z"
               id="path4234-3-6"
               style="color:#000000;clip-rule:nonzero;display:inline;overflow:visible;visibility:visible;opacity:1;isolation:auto;mix-blend-mode:normal;color-interpolation:sRGB;color-interpolation-filters:linearRGB;solid-color:#000000;solid-opacity:1;fill:#ffff82;fill-opacity:1;fill-rule:nonzero;stroke:#303c42;stroke-width:0;stroke-linecap:round;stroke-linejoin:round;stroke-miterlimit:4;stroke-dasharray:none;stroke-dashoffset:0;stroke-opacity:1;color-rendering:auto;image-rendering:auto;shape-rendering:auto;text-rendering:auto;enable-background:accumulate"
               inkscape:connector-curvature="0" />
            <path
               d="m 35.328373,51.543435 c 0.310477,-0.451718 0.687164,-0.859274 1.064079,-1.261002 0.255894,-0.326201 0.610398,-0.551074 0.91818,-0.825039 0.78988,-0.703094 -0.420108,0.315763 0.480664,-0.433287 0.586902,-0.47837 1.183834,-0.949804 1.819971,-1.368086 0.660442,-0.472057 1.402799,-0.794465 2.132667,-1.149499 0.721089,-0.317966 1.488522,-0.511735 2.249284,-0.719241 0.743535,-0.188514 1.492871,-0.342603 2.252547,-0.456696 0.62756,-0.08214 1.259634,-0.103056 1.891803,-0.121423 0.564051,-0.01178 1.123245,-0.01146 1.683298,0.05752 0.65874,0.06846 1.312833,0.170539 1.964664,0.284247 0.779607,0.120434 1.554783,0.261138 2.328391,0.41255 0.881777,0.137271 1.751654,0.320509 2.620796,0.515378 0.927083,0.209045 1.84743,0.442249 2.76873,0.673086 0.912258,0.212404 1.821535,0.440228 2.721852,0.695302 0.854797,0.27823 1.720404,0.52449 2.578661,0.792357 0.796641,0.281276 1.586291,0.579451 2.394455,0.830076 0.817261,0.261281 1.640407,0.503127 2.467718,0.733463 0.785287,0.208033 1.576304,0.39483 2.366085,0.586376 0.729121,0.197084 1.465029,0.36455 2.20615,0.514871 0.717258,0.129884 1.429932,0.266534 2.15688,0.337145 0.870846,0.07867 1.739511,0.169661 2.612408,0.226093 1.104679,0.08905 2.21057,0.04178 3.316245,0.0092 1.421511,-0.03258 2.841252,-0.07863 4.260968,-0.156131 1.375625,-0.08545 2.746016,-0.238757 4.10157,-0.477788 1.155871,-0.259066 2.296153,-0.586178 3.407686,-0.984411 1.08546,-0.41796 2.144088,-0.893652 3.198381,-1.377936 0.891777,-0.422603 1.753337,-0.905491 2.609197,-1.39116 0.811817,-0.527307 0.438187,-0.434351 2.104177,-1.408201 0.0238,2.355113 1.95555,6.476714 -0.33809,8.393963 -0.42192,0.301693 -0.89431,0.530518 -1.35736,0.767868 -0.889637,0.43152 -1.752187,0.913319 -2.663561,1.303008 -1.078239,0.477782 -2.15045,0.96883 -3.268034,1.359696 -1.157074,0.406354 -2.339498,0.761027 -3.554403,0.971468 -1.389656,0.218476 -2.792073,0.336625 -4.196715,0.428186 -1.421573,0.06904 -2.841693,0.160131 -4.264255,0.211333 -1.132557,0.07361 -2.264755,0.14115 -3.400431,0.0799 -0.883819,-0.03645 -1.762077,-0.128829 -2.644707,-0.176331 -0.757567,-0.06392 -1.503606,-0.182294 -2.244973,-0.344723 -0.760761,-0.144817 -1.518201,-0.302048 -2.262012,-0.514053 -0.784517,-0.228245 -1.589906,-0.38675 -2.377969,-0.604228 -0.831942,-0.236988 -1.662892,-0.475195 -2.483524,-0.7465 -0.815954,-0.240942 -1.624871,-0.50272 -2.414145,-0.815125 -0.844981,-0.290173 -1.700368,-0.546584 -2.552332,-0.815294 -0.885624,-0.270759 -1.78925,-0.484339 -2.689294,-0.706365 -0.911558,-0.233003 -1.826094,-0.452013 -2.743607,-0.661774 -0.860824,-0.187892 -1.721663,-0.378441 -2.598968,-0.484131 -0.766599,-0.146584 -1.532879,-0.291552 -2.308321,-0.390178 -0.635889,-0.103067 -1.277082,-0.183541 -1.919244,-0.240614 -0.524261,-0.05401 -1.047886,-0.06553 -1.5756,-0.05063 -0.595191,-0.0027 -1.192529,0.0073 -1.783916,0.07667 -0.723596,0.09322 -1.434396,0.259899 -2.141618,0.430274 -0.71615,0.201471 -1.432746,0.408173 -2.105721,0.722479 -0.700393,0.319859 -1.373826,0.682869 -1.99524,1.130653 -0.59633,0.438118 -1.173415,0.900755 -1.721712,1.393085 -0.443225,0.416893 -0.917018,0.804581 -1.304087,1.273192 -0.369464,0.42876 -0.699942,0.88197 -1.027473,1.340099 l -0.74018,-7.869617 z"
               id="path4234-7"
               style="color:#000000;clip-rule:nonzero;display:inline;overflow:visible;visibility:visible;opacity:1;isolation:auto;mix-blend-mode:normal;color-interpolation:sRGB;color-interpolation-filters:linearRGB;solid-color:#000000;solid-opacity:1;fill:#ffff79;fill-opacity:1;fill-rule:nonzero;stroke:#303c42;stroke-width:0;stroke-linecap:round;stroke-linejoin:round;stroke-miterlimit:4;stroke-dasharray:none;stroke-dashoffset:0;stroke-opacity:1;color-rendering:auto;image-rendering:auto;shape-rendering:auto;text-rendering:auto;enable-background:accumulate"
               inkscape:connector-curvature="0" />
          </g>
        </g>
      </g>
    </g>
  </g>
  <g
     inkscape:groupmode="layer"
     id="layer7"
     inkscape:label="Layer 2"
     style="display:inline"
     transform="translate(0,-111.125)">
    <text
       xml:space="preserve"
       style="font-style:normal;font-variant:normal;font-weight:bold;font-stretch:normal;font-size:4.27918434px;line-height:1.25;font-family:Laksaman;-inkscape-font-specification:'Laksaman, Bold';font-variant-ligatures:normal;font-variant-caps:normal;font-variant-numeric:normal;font-feature-settings:normal;text-align:start;letter-spacing:0px;word-spacing:0px;writing-mode:lr-tb;text-anchor:start;display:inline;fill:#000000;fill-opacity:1;stroke:none;stroke-width:0.04457483"
       x="1.7059991"
       y="118.43072"
       id="text1475"
       transform="scale(0.95865816,1.0431247)"><tspan
         sodipodi:role="line"
         id="tspan1473"
         x="1.7059991"
         y="118.43072"
         style="font-style:normal;font-variant:normal;font-weight:bold;font-stretch:normal;font-size:4.27918434px;font-family:Laksaman;-inkscape-font-specification:'Laksaman, Bold';font-variant-ligatures:normal;font-variant-caps:normal;font-variant-numeric:normal;font-feature-settings:normal;text-align:start;writing-mode:lr-tb;text-anchor:start;stroke-width:0.04457483">&lt;Math&gt;</tspan><tspan
         sodipodi:role="line"
         x="1.7059991"
         y="123.7797"
         style="font-style:normal;font-variant:normal;font-weight:bold;font-stretch:normal;font-size:4.27918434px;font-family:Laksaman;-inkscape-font-specification:'Laksaman, Bold';font-variant-ligatures:normal;font-variant-caps:normal;font-variant-numeric:normal;font-feature-settings:normal;text-align:start;writing-mode:lr-tb;text-anchor:start;stroke-width:0.04457483"
         id="tspan1477">    &lt;/Equations&gt;</tspan></text>
    <g
       id="g877"
       transform="matrix(0.80534977,0,0,0.80534977,24.268681,22.396735)">
      <text
         id="text1516"
         y="139.67804"
         x="-13.967006"
         style="font-style:normal;font-weight:normal;font-size:4.1628499px;line-height:1.25;font-family:sans-serif;letter-spacing:0px;word-spacing:0px;fill:#000000;fill-opacity:1;stroke:none;stroke-width:0.10407124"
         xml:space="preserve"><tspan
           style="stroke-width:0.10407124"
           y="139.67804"
           x="-13.967006"
           id="tspan1514"
           sodipodi:role="line">LaTex,</tspan><tspan
           style="stroke-width:0.10407124"
           y="144.88161"
           x="-13.967006"
           sodipodi:role="line"
           id="tspan879">MathML,</tspan><tspan
           style="stroke-width:0.10407124"
           y="150.08516"
           x="-13.967006"
           sodipodi:role="line"
           id="tspan881">AsciiMath</tspan></text>
      <ellipse
         ry="0.85843015"
         rx="0.83318216"
         cy="143.35419"
         cx="-18.458424"
         id="path1518"
         style="fill:#000000;fill-opacity:1;stroke:#000000;stroke-width:0.84112722;stroke-linejoin:round;stroke-miterlimit:4;stroke-dasharray:none;stroke-opacity:1" />
    </g>
    <g
       id="g872"
       transform="matrix(0.79267595,0,0,0.79267595,1.8374799,57.543985)"
       inkscape:export-xdpi="96"
       inkscape:export-ydpi="96">
      <rect
         transform="rotate(-34.682033)"
         ry="0"
         rx="0"
         y="58.841621"
         x="-57.564838"
         height="5.4592013"
         width="35.709782"
         id="rect1561"
         style="fill:#ff7f92;fill-opacity:1;stroke:#000000;stroke-width:0.3293609;stroke-linejoin:round;stroke-miterlimit:4;stroke-dasharray:none;stroke-opacity:1" />
      <text
         transform="matrix(0.83245659,-0.57721525,0.62227684,0.76978466,0,0)"
         id="text1475-7"
         y="63.431969"
         x="-47.657158"
         style="font-style:normal;font-variant:normal;font-weight:bold;font-stretch:normal;font-size:3.49025059px;line-height:1.25;font-family:'Noto Serif CJK TC';-inkscape-font-specification:'Noto Serif CJK TC, Bold';font-variant-ligatures:normal;font-variant-caps:normal;font-variant-numeric:normal;font-feature-settings:normal;text-align:start;letter-spacing:0px;word-spacing:0px;writing-mode:lr-tb;text-anchor:start;display:inline;fill:#000000;fill-opacity:1;stroke:none;stroke-width:0.03635646"
         xml:space="preserve"><tspan
           id="tspan1477-3"
           style="font-style:normal;font-variant:normal;font-weight:bold;font-stretch:normal;font-size:3.49025059px;font-family:'Noto Serif CJK TC';-inkscape-font-specification:'Noto Serif CJK TC, Bold';font-variant-ligatures:normal;font-variant-caps:normal;font-variant-numeric:normal;font-feature-settings:normal;text-align:start;writing-mode:lr-tb;text-anchor:start;stroke-width:0.03635646"
           y="63.431969"
           x="-47.657158"
           sodipodi:role="line">Better</tspan></text>
    </g>
    <text
       xml:space="preserve"
       style="font-style:normal;font-variant:normal;font-weight:bold;font-stretch:normal;font-size:13.40085125px;line-height:1.25;font-family:Laksaman;-inkscape-font-specification:'Laksaman, Bold';font-variant-ligatures:normal;font-variant-caps:normal;font-variant-numeric:normal;font-feature-settings:normal;text-align:start;letter-spacing:0px;word-spacing:0px;writing-mode:lr-tb;text-anchor:start;display:inline;fill:#000000;fill-opacity:1;stroke:none;stroke-width:0.1395922"
       x="-26.025991"
       y="-42.906429"
       id="text1475-7-8"
       transform="matrix(0.84293287,-0.56180564,0.6080124,0.78110041,0,0)"><tspan
         sodipodi:role="line"
         x="-26.025991"
         y="-42.906429"
         style="font-style:normal;font-variant:normal;font-weight:bold;font-stretch:normal;font-size:13.40085125px;font-family:Laksaman;-inkscape-font-specification:'Laksaman, Bold';font-variant-ligatures:normal;font-variant-caps:normal;font-variant-numeric:normal;font-feature-settings:normal;text-align:start;writing-mode:lr-tb;text-anchor:start;stroke-width:0.1395922"
         id="tspan1477-3-8">Better</tspan></text>
  </g>
</svg>
